<?xml version="1.0" encoding="UTF-8" standalone="no"?>
<svg
   xmlns:dc="http://purl.org/dc/elements/1.1/"
   xmlns:cc="http://creativecommons.org/ns#"
   xmlns:rdf="http://www.w3.org/1999/02/22-rdf-syntax-ns#"
   xmlns:svg="http://www.w3.org/2000/svg"
   xmlns="http://www.w3.org/2000/svg"
   xmlns:sodipodi="http://sodipodi.sourceforge.net/DTD/sodipodi-0.dtd"
   xmlns:inkscape="http://www.inkscape.org/namespaces/inkscape"
   version="1.1"
   viewBox="0,0,1024,1024"
   id="svg2562"
   sodipodi:docname="create_floating_table.svg"
   inkscape:version="0.92.4 (5da689c313, 2019-01-14)">
  <metadata
     id="metadata2568">
    <rdf:RDF>
      <cc:Work
         rdf:about="">
        <dc:format>image/svg+xml</dc:format>
        <dc:type
           rdf:resource="http://purl.org/dc/dcmitype/StillImage" />
        <dc:title></dc:title>
      </cc:Work>
    </rdf:RDF>
  </metadata>
  <defs
     id="defs2566" />
  <sodipodi:namedview
     pagecolor="#ffffff"
     bordercolor="#666666"
     borderopacity="1"
     objecttolerance="10"
     gridtolerance="10"
     guidetolerance="10"
     inkscape:pageopacity="0"
     inkscape:pageshadow="2"
     inkscape:window-width="1920"
     inkscape:window-height="1017"
     id="namedview2564"
     showgrid="false"
     inkscape:zoom="0.23046875"
     inkscape:cx="512"
     inkscape:cy="512"
     inkscape:window-x="-8"
     inkscape:window-y="-8"
     inkscape:window-maximized="1"
     inkscape:current-layer="svg2562" />
  <desc
     id="desc2556">note_add icon - Licensed under Apache License v2.0 (http://www.apache.org/licenses/LICENSE-2.0) - Created with Iconfu.com - Derivative work of Material icons (Copyright Google Inc.)</desc>
  <path
     style="mix-blend-mode:normal;fill:#03b8e5;fill-rule:nonzero"
     d="M 426.6699,917.33988 512.4297,1024 597.3301,917.33988 Z"
     id="path3115"
     inkscape:connector-curvature="0" />
  <path
     style="mix-blend-mode:normal;fill:#03b8e5;fill-rule:nonzero"
     d="M 426.6699,106.66012 512.4297,0 597.3301,106.66012 Z"
     id="path3115-7"
     inkscape:connector-curvature="0" />
  <path
     style="mix-blend-mode:normal;fill:#03b8e5;fill-rule:nonzero"
     d="M 917.33988,426.6699 1024,512.4297 917.33988,597.3301 Z"
     id="path3115-7-9"
     inkscape:connector-curvature="0" />
  <path
     style="mix-blend-mode:normal;fill:#03b8e5;fill-rule:nonzero"
     d="M 106.66016,426.6699 0,512.4297 106.66016,597.3301 Z"
     id="path3115-7-9-4"
     inkscape:connector-curvature="0" />
  <g
     id="g3198"
     style="mix-blend-mode:normal;fill:#03b8e5;fill-rule:nonzero"
     transform="matrix(0.73241615,0,0,0.73241615,137.00293,137.00293)">
    <path
       id="path3196"
       d="m 938.67,170.67 v 682.66 c 0,46.93 -38.41,85.34 -85.34,85.34 H 170.67 c -46.93,0 -85.34,-38.41 -85.34,-85.34 V 170.67 c 0,-46.93 38.41,-85.34 85.34,-85.34 h 682.66 c 46.93,0 85.34,38.41 85.34,85.34 z m -597.34,0 H 170.67 v 170.66 h 170.66 z m 0,512 H 170.67 v 170.66 h 170.66 z m 0,-256 H 170.67 v 170.66 h 170.66 z m 256,-256 H 426.67 v 170.66 h 170.66 z m 256,0 H 682.67 v 170.66 h 170.66 z m -256,512 H 426.67 v 170.66 h 170.66 z m 0,-256 H 426.67 v 170.66 h 170.66 z m 256,256 H 682.67 v 170.66 h 170.66 z m 0,-256 H 682.67 v 170.66 h 170.66 z"
       inkscape:connector-curvature="0" />
  </g>
</svg>
