<svg version="1.1" xmlns="http://www.w3.org/2000/svg" xmlns:xlink="http://www.w3.org/1999/xlink" viewBox="0,0,1024,1024">
	<desc>grid_on icon - Licensed under Apache License v2.0 (http://www.apache.org/licenses/LICENSE-2.0) - Created with Iconfu.com - Derivative work of Material icons (Copyright Google Inc.)</desc>
	<g fill="#03b8e5" fill-rule="nonzero" style="mix-blend-mode: normal">
		<path d="M938.67,170.67v682.66c0,46.93 -38.41,85.34 -85.34,85.34h-682.66c-46.93,0 -85.34,-38.41 -85.34,-85.34v-682.66c0,-46.93 38.41,-85.34 85.34,-85.34h682.66c46.93,0 85.34,38.41 85.34,85.34zM341.33,170.67h-170.66v170.66h170.66zM341.33,682.67h-170.66v170.66h170.66zM341.33,426.67h-170.66v170.66h170.66zM597.33,170.67h-170.66v170.66h170.66zM853.33,170.67h-170.66v170.66h170.66zM597.33,682.67h-170.66v170.66h170.66zM597.33,426.67h-170.66v170.66h170.66zM853.33,682.67h-170.66v170.66h170.66zM853.33,426.67h-170.66v170.66h170.66z"/>
	</g>
</svg>