<svg version="1.1" xmlns="http://www.w3.org/2000/svg" xmlns:xlink="http://www.w3.org/1999/xlink" viewBox="0,0,1024,1024">
	<desc>help_outline icon - Licensed under Apache License v2.0 (http://www.apache.org/licenses/LICENSE-2.0) - Created with Iconfu.com - Derivative work of Material icons (Copyright Google Inc.)</desc>
	<g fill="#03b8e5" fill-rule="nonzero" style="mix-blend-mode: normal">
		<path d="M938.67,512c0,235.52 -191.15,426.67 -426.67,426.67c-235.52,0 -426.67,-191.15 -426.67,-426.67c0,-235.52 191.15,-426.67 426.67,-426.67c235.52,0 426.67,191.15 426.67,426.67zM853.33,512c0,-188.16 -153.17,-341.33 -341.33,-341.33c-188.16,0 -341.33,153.17 -341.33,341.33c0,188.16 153.17,341.33 341.33,341.33c188.16,0 341.33,-153.17 341.33,-341.33zM682.67,426.67c0,106.67 -128,117.33 -128,213.33h-85.34c0,-138.67 128,-128 128,-213.33c0,-46.93 -38.4,-85.34 -85.33,-85.34c-46.93,0 -85.33,38.41 -85.33,85.34h-85.34c0,-94.29 76.38,-170.67 170.67,-170.67c94.29,0 170.67,76.38 170.67,170.67zM469.33,682.67h85.34v85.33h-85.34z"/>
	</g>
</svg>