<?xml version="1.0" standalone="no"?><!DOCTYPE svg PUBLIC "-//W3C//DTD SVG 1.1//EN" "http://www.w3.org/Graphics/SVG/1.1/DTD/svg11.dtd"><svg class="icon" width="200px" height="200.00px" viewBox="0 0 1024 1024" version="1.1" xmlns="http://www.w3.org/2000/svg"><path fill="#000000" d="M878.933333 584.533333L774.4 512l-74.666667 51.2 81.066667 55.466667-253.866667 174.933333c-6.4 4.266667-17.066667 4.266667-23.466666 0L245.333333 618.666667l78.933334-55.466667-74.666667-51.2-104.533333 72.533333c-25.6 17.066667-25.6 53.333333 0 70.4l341.333333 236.8c14.933333 10.666667 34.133333 10.666667 49.066667 0l341.333333-236.8c25.6-17.066667 25.6-53.333333 2.133333-70.4z"  /><path fill="#000000" d="M878.933333 369.066667l-343.466666-234.666667c-14.933333-10.666667-32-10.666667-46.933334 0l-343.466666 234.666667c-23.466667 17.066667-23.466667 51.2 0 68.266666l343.466666 238.933334c14.933333 10.666667 34.133333 10.666667 46.933334 0l343.466666-238.933334c23.466667-14.933333 23.466667-51.2 0-68.266666z m-194.133333 98.133333l-76.8 51.2-87.466667-59.733333-102.4 70.4-76.8-51.2 104.533334-70.4-104.533334-70.4 76.8-51.2 104.533334 70.4 89.6-59.733334 76.8 51.2-93.866667 57.6 89.6 61.866667z"  /></svg>